:FULLY-SPECIFIED
:FORCE-ALL-JOINTS-BE-3DOF
:DEGREES
611
root 5.94466 16.7214 -3.702 2.2529 54.9568 -5.81936
lfemur -15.9897 18.3672 -22.4977
ltibia 38.5007 -0 0
lfoot -34.8516 22.0413 -0.121508
ltoes 21.3844 -0 0
rfemur -49.371 -16.6876 19.5351
rtibia 66.3811 -0 0
rfoot 9.38488 18.0564 -0.0358927
rtoes -19.1581 0 0
lowerback 2.68897 -2.96289 -3.8018
upperback -0.0570953 -4.01984 2.01277
thorax -1.18239 -1.98463 4.33261
lowerneck -8.55975 -9.39599 -0.648781
upperneck 14.4273 -13.1435 3.38811
head 6.11594 -6.15057 0.155784
lclavicle -2.73329e-014 6.75868e-015 0
lhumerus -22.7714 -40.8141 94.2223
lradius 59.6759 -0 0
lwrist 21.7751 0 0
lhand -14.2823 -1.9903 0.00740676
lfingers 7.12502 -0 0
lthumb 11.8552 27.6208 0.00142949
rclavicle -2.73329e-014 6.75868e-015 0
rhumerus 18.4183 6.0586 -69.9511
rradius 114.782 -0 0
rwrist -53.4376 0 0
rhand -28.9505 -24.8193 0.0700464
rfingers 7.12502 -0 0
rthumb -2.30383 -54.777 0.067388
612
root 5.92642 16.7373 -3.71642 2.54104 53.1744 -5.6683
lfemur -15.9591 18.9019 -22.671
ltibia 38.2038 -0 0
lfoot -34.997 22.4974 -0.114556
ltoes 22.3473 -0 0
rfemur -49.5337 -16.8902 19.7519
rtibia 66.8248 -0 0
rfoot 9.34274 18.5214 -0.0338395
rtoes -19.1331 0 0
lowerback 2.58848 -3.04871 -3.73799
upperback -0.158689 -4.13181 2.00002
thorax -1.22345 -2.03836 4.28404
lowerneck -8.70189 -9.21247 -0.503523
upperneck 14.5201 -12.9034 3.25397
head 6.14188 -6.03259 0.103033
lclavicle -2.73329e-014 6.75868e-015 0
lhumerus -22.6926 -41.5142 94.6731
lradius 59.9863 -0 0
lwrist 21.6417 0 0
lhand -14.0255 -1.97456 0.00698337
lfingers 7.12502 -0 0
lthumb 12.1029 27.624 0.00134778
rclavicle -2.73329e-014 6.75868e-015 0
rhumerus 18.0829 5.56413 -69.7779
rradius 113.874 -0 0
rwrist -53.8747 0 0
rhand -29.0946 -25.0846 0.0660419
rfingers 7.12502 -0 0
rthumb -2.44299 -55.0413 0.0635356
613
root 5.90819 16.7533 -3.73085 2.81029 51.3916 -5.53756
lfemur -15.9301 19.4368 -22.8445
ltibia 37.9069 -0 0
lfoot -35.1423 22.9535 -0.106448
ltoes 23.3102 -0 0
rfemur -49.6973 -17.0922 19.9696
rtibia 67.2685 -0 0
rfoot 9.30063 18.9864 -0.0314443
rtoes -19.108 0 0
lowerback 2.48789 -3.13441 -3.67403
upperback -0.260273 -4.2438 1.98748
thorax -1.26447 -2.09213 4.2355
lowerneck -8.84349 -9.0286 -0.358801
upperneck 14.6122 -12.663 3.12036
head 6.1677 -5.91459 0.0503472
lclavicle -2.73329e-014 6.75868e-015 0
lhumerus -22.6203 -42.2148 95.1276
lradius 60.2967 -0 0
lwrist 21.5082 0 0
lhand -13.7688 -1.95882 0.00648945
lfingers 7.12502 -0 0
lthumb 12.3506 27.6271 0.00125246
rclavicle -2.73329e-014 6.75868e-015 0
rhumerus 17.7463 5.07067 -69.6019
rradius 112.965 -0 0
rwrist -54.3117 0 0
rhand -29.2387 -25.3499 0.0613703
rfingers 7.12502 -0 0
rthumb -2.58214 -55.3056 0.0590413
614
root 5.88995 16.7692 -3.74527 3.06328 49.6084 -5.42459
lfemur -15.9028 19.9717 -23.0184
ltibia 37.61 -0 0
lfoot -35.2876 23.4096 -0.0971823
ltoes 24.2731 -0 0
rfemur -49.862 -17.2935 20.1881
rtibia 67.7122 -0 0
rfoot 9.25854 19.4514 -0.0287075
rtoes -19.0829 0 0
lowerback 2.3872 -3.22001 -3.60991
upperback -0.361847 -4.35582 1.97513
thorax -1.30545 -2.14594 4.18701
lowerneck -8.98454 -8.84438 -0.214613
upperneck 14.7036 -12.4225 2.98727
head 6.1934 -5.79656 -0.00227413
lclavicle -2.73329e-014 6.75868e-015 0
lhumerus -22.5547 -42.9158 95.586
lradius 60.6071 -0 0
lwrist 21.3748 0 0
lhand -13.512 -1.94308 0.00592499
lfingers 7.12502 -0 0
lthumb 12.5983 27.6303 0.00114352
rclavicle -2.73329e-014 6.75868e-015 0
rhumerus 17.4085 4.57825 -69.4232
rradius 112.057 -0 0
rwrist -54.7487 0 0
rhand -29.3827 -25.6151 0.0560316
rfingers 7.12502 -0 0
rthumb -2.72127 -55.5698 0.0539053
615
root 5.87172 16.7851 -3.7597 3.30222 47.825 -5.32728
lfemur -15.8771 20.5067 -23.1925
ltibia 37.3131 -0 0
lfoot -35.4328 23.8656 -0.0867609
ltoes 25.236 -0 0
rfemur -50.0276 -17.4943 20.4074
rtibia 68.1559 -0 0
rfoot 9.21647 19.9164 -0.0256291
rtoes -19.0578 0 0
lowerback 2.2864 -3.30549 -3.54564
upperback -0.463412 -4.46785 1.96298
thorax -1.34638 -2.19978 4.13855
lowerneck -9.12506 -8.65981 -0.0709561
upperneck 14.7944 -12.1817 2.8547
head 6.21899 -5.67851 -0.0548314
lclavicle -2.73329e-014 6.75868e-015 0
lhumerus -22.4962 -43.6172 96.0486
lradius 60.9175 -0 0
lwrist 21.2413 0 0
lhand -13.2552 -1.92734 0.00529001
lfingers 7.12502 -0 0
lthumb 12.8459 27.6334 0.00102097
rclavicle -2.73329e-014 6.75868e-015 0
rhumerus 17.0693 4.08689 -69.2416
rradius 111.148 -0 0
rwrist -55.1858 0 0
rhand -29.5268 -25.8804 0.0500262
rfingers 7.12502 -0 0
rthumb -2.86037 -55.834 0.0481278
616
root 5.85349 16.8011 -3.77412 3.52898 46.0413 -5.24388
lfemur -15.8531 21.0418 -23.3671
ltibia 37.0162 -0 0
lfoot -35.5779 24.3216 -0.075184
ltoes 26.1989 -0 0
rfemur -50.1941 -17.6944 20.6276
rtibia 68.5997 -0 0
rfoot 9.17442 20.3814 -0.0222095
rtoes -19.0327 0 0
lowerback 2.18549 -3.39085 -3.48121
upperback -0.564969 -4.57991 1.95103
thorax -1.38727 -2.25365 4.09013
lowerneck -9.26504 -8.47489 0.0721735
upperneck 14.8846 -11.9408 2.72264
head 6.24446 -5.56044 -0.107325
lclavicle -2.73329e-014 6.75868e-015 0
lhumerus -22.4449 -44.3189 96.5157
lradius 61.2279 -0 0
lwrist 21.1079 0 0
lhand -12.9985 -1.91161 0.00458452
lfingers 7.12502 -0 0
lthumb 13.0936 27.6366 0.000884814
rclavicle -2.73329e-014 6.75868e-015 0
rhumerus 16.7287 3.59661 -69.0572
rradius 110.24 -0 0
rwrist -55.6228 0 0
rhand -29.6708 -26.1456 0.043354
rfingers 7.12502 -0 0
rthumb -2.99944 -56.0982 0.0417089
617
root 5.83525 16.817 -3.78855 3.74512 44.2574 -5.1729
lfemur -15.8307 21.5769 -23.542
ltibia 36.7193 -0 0
lfoot -35.723 24.7776 -0.0624525
ltoes 27.1619 -0 0
rfemur -50.3617 -17.894 20.8486
rtibia 69.0434 -0 0
rfoot 9.13241 20.8464 -0.0184487
rtoes -19.0076 0 0
lowerback 2.08448 -3.47611 -3.41662
upperback -0.666519 -4.69199 1.93927
thorax -1.42812 -2.30756 4.04174
lowerneck -9.40448 -8.28962 0.214778
upperneck 14.9741 -11.6996 2.59108
head 6.26983 -5.44235 -0.159755
lclavicle -2.73329e-014 6.75868e-015 0
lhumerus -22.401 -45.0209 96.9877
lradius 61.5383 -0 0
lwrist 20.9744 0 0
lhand -12.7417 -1.89588 0.00380854
lfingers 7.12502 -0 0
lthumb 13.3413 27.6397 0.000735051
rclavicle -2.73329e-014 6.75868e-015 0
rhumerus 16.3867 3.10744 -68.87
rradius 109.331 -0 0
rwrist -56.0598 0 0
rhand -29.8147 -26.4108 0.0360153
rfingers 7.12502 -0 0
rthumb -3.13848 -56.3624 0.0346487
618
root 5.81702 16.833 -3.80297 3.952 42.4733 -5.1131
lfemur -15.81 22.1121 -23.7173
ltibia 36.4224 -0 0
lfoot -35.8679 25.2336 -0.0485674
ltoes 28.1248 -0 0
rfemur -50.5303 -18.0929 21.0705
rtibia 69.4871 -0 0
rfoot 9.09043 21.3113 -0.0143471
rtoes -18.9826 0 0
lowerback 1.98337 -3.56125 -3.35188
upperback -0.768062 -4.80409 1.92771
thorax -1.46892 -2.3615 3.9934
lowerneck -9.5434 -8.10402 0.35686
upperneck 15.0629 -11.4583 2.46001
head 6.29507 -5.32423 -0.212123
lclavicle -2.73329e-014 6.75868e-015 0
lhumerus -22.3649 -45.7231 97.4647
lradius 61.8486 -0 0
lwrist 20.841 0 0
lhand -12.4849 -1.88016 0.00296208
lfingers 7.12502 -0 0
lthumb 13.589 27.6429 0.000571685
rclavicle -2.73329e-014 6.75868e-015 0
rhumerus 16.0433 2.6194 -68.68
rradius 108.423 -0 0
rwrist -56.4969 0 0
rhand -29.9587 -26.676 0.0280104
rfingers 7.12502 -0 0
rthumb -3.27749 -56.6266 0.0269475
619
root 5.79879 16.8489 -3.8174 4.15079 40.6891 -5.06343
lfemur -15.791 22.6473 -23.8931
ltibia 36.1255 -0 0
lfoot -36.0127 25.6895 -0.0335296
ltoes 29.0877 -0 0
rfemur -50.6999 -18.2912 21.2932
rtibia 69.9308 -0 0
rfoot 9.04848 21.7763 -0.00990488
rtoes -18.9575 0 0
lowerback 1.88215 -3.64627 -3.28698
upperback -0.8696 -4.9162 1.91635
thorax -1.50968 -2.41548 3.94508
lowerneck -9.68178 -7.91807 0.498423
upperneck 15.1512 -11.2167 2.32944
head 6.32021 -5.20609 -0.264429
lclavicle -2.73329e-014 6.75868e-015 0
lhumerus -22.3368 -46.4255 97.9472
lradius 62.159 -0 0
lwrist 20.7075 0 0
lhand -12.2281 -1.86444 0.00204515
lfingers 7.12502 -0 0
lthumb 13.8366 27.646 0.000394719
rclavicle -2.73329e-014 6.75868e-015 0
rhumerus 15.6984 2.1325 -68.4871
rradius 107.514 -0 0
rwrist -56.9339 0 0
rhand -30.1025 -26.9412 0.0193393
rfingers 7.12502 -0 0
rthumb -3.41646 -56.8908 0.0186055
